HIERARCHY
ROOT Hips
{
 OFFSET 0.000000 0.000000 0.000000
 CHANNELS 6 Xposition Yposition Zposition Yrotation Xrotation Zrotation
 JOINT Chest
 {
  OFFSET 0.000000 9.588913 -0.003946
  CHANNELS 3 Yrotation Xrotation Zrotation
  JOINT Chest2
  {
   OFFSET 0.000000 9.541882 0.008053
   CHANNELS 3 Yrotation Xrotation Zrotation
   JOINT Chest3
   {
    OFFSET 0.000000 9.501360 0.000000
    CHANNELS 3 Yrotation Xrotation Zrotation
    JOINT Chest4
    {
     OFFSET 0.000000 9.491660 0.000000
     CHANNELS 3 Yrotation Xrotation Zrotation
     JOINT Neck
     {
      OFFSET 0.000000 14.331917 0.000000
      CHANNELS 3 Yrotation Xrotation Zrotation
      JOINT Head
      {
       OFFSET 0.000000 8.884799 0.017034
       CHANNELS 3 Yrotation Xrotation Zrotation
       End Site
       {
        OFFSET 0.000000 16.896195 0.008993
       }
      }
     }
     JOINT RightCollar
     {
      OFFSET -2.923010 9.499495 0.000000
      CHANNELS 3 Yrotation Xrotation Zrotation
      JOINT RightShoulder
      {
       OFFSET -13.795216 0.000000 0.000000
       CHANNELS 3 Yrotation Xrotation Zrotation
       JOINT RightElbow
       {
        OFFSET -30.272209 0.000000 0.000000
        CHANNELS 3 Yrotation Xrotation Zrotation
        JOINT RightWrist
        {
         OFFSET -24.478199 0.000000 0.000000
         CHANNELS 3 Yrotation Xrotation Zrotation
         End Site
         {
          OFFSET -18.090752 0.000000 0.000000
         }
        }
       }
      }
     }
     JOINT LeftCollar
     {
      OFFSET 2.923010 9.499495 0.000000
      CHANNELS 3 Yrotation Xrotation Zrotation
      JOINT LeftShoulder
      {
       OFFSET 13.795216 0.000000 0.000000
       CHANNELS 3 Yrotation Xrotation Zrotation
       JOINT LeftElbow
       {
        OFFSET 30.272209 0.000000 0.000000
        CHANNELS 3 Yrotation Xrotation Zrotation
        JOINT LeftWrist
        {
         OFFSET 24.478199 0.000000 0.000000
         CHANNELS 3 Yrotation Xrotation Zrotation
         End Site
         {
          OFFSET 18.090752 0.000000 0.000000
         }
        }
       }
      }
     }
    }
   }
  }
 }
 JOINT RightHip
 {
  OFFSET -7.826875 0.019532 0.001973
  CHANNELS 3 Yrotation Xrotation Zrotation
  JOINT RightKnee
  {
   OFFSET 0.000000 -40.546152 -0.001885
   CHANNELS 3 Yrotation Xrotation Zrotation
   JOINT RightAnkle
   {
    OFFSET 0.000000 -39.417092 -0.003189
    CHANNELS 3 Yrotation Xrotation Zrotation
    JOINT RightToe
    {
     OFFSET 0.000000 -7.579396 17.243563
     CHANNELS 3 Yrotation Xrotation Zrotation
     End Site
     {
      OFFSET 0.000000 -1.500329 6.694466
     }
    }
   }
  }
 }
 JOINT LeftHip
 {
  OFFSET 7.826875 0.019532 0.001973
  CHANNELS 3 Yrotation Xrotation Zrotation
  JOINT LeftKnee
  {
   OFFSET 0.000000 -40.546152 -0.001885
   CHANNELS 3 Yrotation Xrotation Zrotation
   JOINT LeftAnkle
   {
    OFFSET 0.000000 -39.417092 -0.003189
    CHANNELS 3 Yrotation Xrotation Zrotation
    JOINT LeftToe
    {
     OFFSET 0.000000 -7.579396 17.243563
     CHANNELS 3 Yrotation Xrotation Zrotation
     End Site
     {
      OFFSET 0.000000 -1.500329 6.694466
     }
    }
   }
  }
 }
}
MOTION
Frames: 10
Frame Time: 0.008333
0.000000 87.345680 0.000000 0.000000 -5.767889 0.000000 0.000000 11.653876 0.000000 0.000000 -5.885988 0.000000 0.000000 -0.000000 0.000000 0.000000 -0.000000 0.000000 0.000000 12.528808 0.000000 0.000000 0.711711 0.000000 0.000000 -0.000000 0.000000 0.000000 -0.000000 0.000000 2.309063 -0.000000 0.000000 -2.309063 -0.000000 -0.000000 0.000000 -0.000000 0.000000 0.000000 0.000000 0.000000 -2.309063 0.000000 0.000000 2.309063 -0.000000 0.000000 0.000000 8.520374 0.000000 0.000000 1.905768 0.000000 -0.000000 -4.658254 0.000000 0.000000 -0.000000 0.000000 0.000000 8.520374 0.000000 0.000000 1.905768 0.000000 -0.000000 -4.658254 0.000000 0.000000 -0.000000 0.000000
-7.441418 89.200875 -0.753613 -133.495187 -5.217484 0.359216 0.602111 1.937437 -0.151614 0.343030 1.106983 -0.093513 0.428525 1.383815 -0.115861 0.343030 1.106983 -0.093513 1.745381 20.558756 -0.188308 3.228141 2.406052 -0.853291 -1.024358 0.065277 -0.992052 -2.335344 4.020488 92.016928 5.983892 4.181540 2.451979 -1.813186 -2.243294 -0.199151 1.236515 0.291509 0.485905 0.128597 3.382459 -90.310399 -3.609739 6.482996 -3.120711 1.445728 -2.737757 0.622192 -8.001752 8.135239 0.621310 -1.114855 0.292945 -0.588740 -10.685016 -3.961393 -0.611056 0.003807 0.009170 -0.000256 3.112670 6.613593 0.143223 -1.064035 2.452745 0.379549 3.976719 -3.679725 -0.545090 -0.001953 -0.005344 -0.005037
-7.440219 89.200686 -0.758751 -133.492626 -5.207095 0.361587 0.606598 1.934744 -0.151921 0.345386 1.105379 -0.094147 0.431468 1.381811 -0.116647 0.345386 1.105379 -0.094147 1.744673 20.562176 -0.185667 3.226026 2.412312 -0.848199 -1.031929 0.069928 -0.992658 -2.333102 4.013139 92.024468 5.982219 4.182349 2.456388 -1.814282 -2.245112 -0.198670 1.230898 0.292611 0.486570 0.132063 3.383913 -90.305304 -3.603902 6.483743 -3.123488 1.443630 -2.736318 0.617942 -8.010969 8.130582 0.618783 -1.110579 0.287917 -0.588532 -10.664331 -3.962850 -0.611819 0.005122 0.010477 0.000319 3.119268 6.603174 0.144300 -1.065550 2.457061 0.380583 3.968377 -3.683525 -0.549147 -0.002231 -0.004676 -0.004282
-7.439167 89.200483 -0.764783 -133.491347 -5.196813 0.365247 0.610674 1.932276 -0.152800 0.347736 1.103854 -0.094890 0.434404 1.379906 -0.117571 0.347736 1.103854 -0.094890 1.744821 20.565824 -0.183313 3.225549 2.419021 -0.843874 -1.036874 0.074397 -0.992496 -2.328130 4.007597 92.029509 5.984526 4.180095 2.459421 -1.818147 -2.246043 -0.195488 1.228437 0.293659 0.484645 0.133366 3.385535 -90.297729 -3.599653 6.481646 -3.125820 1.438291 -2.734711 0.618169 -8.014972 8.124896 0.620867 -1.112162 0.283303 -0.588239 -10.671112 -3.964551 -0.616107 0.004607 0.011107 0.000824 3.124831 6.592187 0.143759 -1.064597 2.463834 0.380635 3.965858 -3.689403 -0.553211 -0.002089 -0.004016 -0.003136
-7.438467 89.200291 -0.771726 -133.491398 -5.188679 0.369376 0.614221 1.931347 -0.153809 0.350155 1.103093 -0.095382 0.437427 1.378955 -0.118179 0.350155 1.103093 -0.095382 1.745745 20.568950 -0.181747 3.226720 2.424802 -0.841219 -1.038650 0.078262 -0.991048 -2.322951 4.003543 92.034054 5.990355 4.177518 2.460091 -1.822796 -2.244068 -0.192162 1.227838 0.293938 0.481071 0.137322 3.387114 -90.289852 -3.597267 6.480637 -3.126576 1.431153 -2.733879 0.621490 -8.014109 8.120409 0.627285 -1.114439 0.279962 -0.587797 -10.705631 -3.967499 -0.622730 0.002544 0.011469 0.000643 3.130411 6.583633 0.142856 -1.061711 2.470834 0.380815 3.965548 -3.694701 -0.558817 -0.001305 -0.004465 -0.001185
-7.438059 89.200098 -0.779253 -133.492516 -5.182138 0.373496 0.617804 1.931442 -0.155013 0.352568 1.102859 -0.095669 0.440443 1.378664 -0.118531 0.352568 1.102859 -0.095669 1.746850 20.571747 -0.180402 3.228291 2.429982 -0.839029 -1.038872 0.082564 -0.987624 -2.318099 3.999156 92.038391 5.997031 4.175710 2.459470 -1.823437 -2.240055 -0.189879 1.228055 0.294087 0.476833 0.145485 3.389624 -90.281822 -3.597479 6.479925 -3.123803 1.425100 -2.733567 0.624321 -8.008423 8.117650 0.634924 -1.116379 0.276544 -0.586817 -10.749039 -3.970967 -0.630212 0.000202 0.011954 0.000205 3.137229 6.577742 0.143233 -1.059267 2.476726 0.381737 3.958888 -3.698430 -0.565150 -0.000557 -0.006042 -0.000066
-7.437388 89.199848 -0.786935 -133.491577 -5.173895 0.375567 0.622093 1.930210 -0.154877 0.354670 1.102253 -0.095705 0.443070 1.377908 -0.118571 0.354670 1.102253 -0.095705 1.746950 20.574947 -0.179029 3.228022 2.435887 -0.836484 -1.043171 0.087676 -0.983255 -2.311226 3.995901 92.041483 6.003833 4.173473 2.459849 -1.820501 -2.237563 -0.188694 1.225931 0.296488 0.472260 0.156277 3.391918 -90.273195 -3.599918 6.474912 -3.121131 1.420528 -2.734412 0.628967 -8.002466 8.114855 0.637176 -1.118480 0.273099 -0.585870 -10.748525 -3.974096 -0.634599 0.000990 0.012562 0.001421 3.139610 6.570066 0.145625 -1.058821 2.482961 0.383563 3.950185 -3.702501 -0.571317 -0.000383 -0.007130 -0.000263
-7.436513 89.199535 -0.794330 -133.487147 -5.163120 0.376742 0.625568 1.927530 -0.153308 0.355933 1.101154 -0.095531 0.444650 1.376533 -0.118349 0.355933 1.101154 -0.095531 1.746709 20.578103 -0.178468 3.227370 2.441725 -0.835314 -1.050746 0.092650 -0.978438 -2.302225 3.993940 92.040523 6.011272 4.169916 2.463779 -1.815869 -2.238875 -0.190921 1.223274 0.300543 0.468490 0.169219 3.393911 -90.265998 -3.601321 6.467782 -3.121391 1.414789 -2.735443 0.634177 -7.998060 8.110865 0.634187 -1.120829 0.269762 -0.585545 -10.711930 -3.977403 -0.634985 0.004133 0.013444 0.003263 3.133692 6.561012 0.146033 -1.057508 2.486094 0.387154 3.948058 -3.705901 -0.577165 -0.000494 -0.006806 -0.000747
-7.436073 89.199210 -0.801193 -133.481585 -5.152283 0.380502 0.626498 1.925042 -0.152893 0.356121 1.099918 -0.095665 0.444885 1.374988 -0.118518 0.356121 1.099918 -0.095665 1.747733 20.580681 -0.177927 3.229032 2.446520 -0.834566 -1.054637 0.096675 -0.973387 -2.293270 3.993049 92.036228 6.018420 4.163291 2.470545 -1.810888 -2.242961 -0.194453 1.224369 0.303857 0.466105 0.185458 3.397626 -90.260293 -3.599798 6.461443 -3.124925 1.408503 -2.733728 0.636378 -7.996998 8.106175 0.632482 -1.122104 0.265365 -0.584949 -10.702109 -3.981005 -0.637069 0.005202 0.014460 0.003895 3.126193 6.553034 0.140975 -1.056246 2.486862 0.392648 3.951627 -3.708857 -0.582429 -0.000687 -0.005829 -0.001145
-7.436242 89.198920 -0.807642 -133.476129 -5.143395 0.387033 0.624925 1.923021 -0.154347 0.355297 1.098754 -0.096474 0.443852 1.373534 -0.119533 0.355297 1.098754 -0.096474 1.750848 20.583291 -0.176675 3.234288 2.451399 -0.833135 -1.052826 0.100810 -0.969024 -2.287485 3.993817 92.034021 6.024890 4.155001 2.476381 -1.807622 -2.246519 -0.196717 1.229682 0.306568 0.464550 0.204569 3.402596 -90.254745 -3.596241 6.451966 -3.130851 1.405084 -2.726685 0.636742 -8.001008 8.102470 0.632255 -1.119716 0.260091 -0.584119 -10.724506 -3.983918 -0.641811 0.004571 0.014886 0.003731 3.120816 6.546707 0.133222 -1.057942 2.488506 0.397472 3.954503 -3.712253 -0.587138 -0.001581 -0.005314 -0.001199
